<svg viewBox="0 0 66 66" fill="none" xmlns="http://www.w3.org/2000/svg">
<path d="M8.25 5.5C6.79131 5.5 5.39236 6.07946 4.36091 7.11091C3.32946 8.14236 2.75 9.54131 2.75 11V44C2.75 45.4587 3.32946 46.8576 4.36091 47.8891C5.39236 48.9205 6.79131 49.5 8.25 49.5H27.5V55H22V60.5H44V55H38.5V49.5H57.75C59.2087 49.5 60.6076 48.9205 61.6391 47.8891C62.6705 46.8576 63.25 45.4587 63.25 44V11C63.25 9.54131 62.6705 8.14236 61.6391 7.11091C60.6076 6.07946 59.2087 5.5 57.75 5.5M8.25 11H57.75V44H8.25M41.25 13.75L31.625 23.375L41.25 33L45.1 29.15L39.325 23.375L45.1 17.6M24.75 22L20.9 25.85L26.675 31.625L20.9 37.4L24.75 41.25L34.375 31.625" fill="#0EA5E9"/>
</svg>